<mxfile host="app.diagrams.net" modified="2023-10-10T00:20:53.141Z" agent="Mozilla/5.0 (Windows NT 10.0; Win64; x64) AppleWebKit/537.36 (KHTML, like Gecko) Chrome/117.0.0.0 Safari/537.36" version="22.0.4" etag="0R8omGTT_nVlEufo3GRN" type="github">
  <diagram name="PÃ¡gina-1" id="yszJdM1Xn3YUbBmMt-7o">
    <mxGraphModel>
      <root>
        <mxCell id="0" />
        <mxCell id="1" parent="0" />
      </root>
    </mxGraphModel>
  </diagram>
</mxfile>
